<mxfile host="app.diagrams.net" agent="Mozilla/5.0 (Macintosh; Intel Mac OS X 10_15_7) AppleWebKit/537.36 (KHTML, like Gecko) Chrome/134.0.0.0 Safari/537.36" version="26.1.0">
  <diagram id="C5RBs43oDa-KdzZeNtuy" name="Page-1">
    <mxGraphModel dx="1905" dy="917" grid="1" gridSize="10" guides="1" tooltips="1" connect="1" arrows="1" fold="1" page="1" pageScale="1" pageWidth="827" pageHeight="1169" math="0" shadow="0">
      <root>
        <mxCell id="WIyWlLk6GJQsqaUBKTNV-0" />
        <mxCell id="WIyWlLk6GJQsqaUBKTNV-1" parent="WIyWlLk6GJQsqaUBKTNV-0" />
        <mxCell id="GZCbPghufDg6-JbwwUEW-0" value="" style="edgeStyle=orthogonalEdgeStyle;rounded=0;orthogonalLoop=1;jettySize=auto;html=1;" edge="1" parent="WIyWlLk6GJQsqaUBKTNV-1" source="WIyWlLk6GJQsqaUBKTNV-3" target="WIyWlLk6GJQsqaUBKTNV-6">
          <mxGeometry relative="1" as="geometry" />
        </mxCell>
        <mxCell id="WIyWlLk6GJQsqaUBKTNV-3" value="Start" style="rounded=1;whiteSpace=wrap;html=1;fontSize=12;glass=0;strokeWidth=1;shadow=0;" parent="WIyWlLk6GJQsqaUBKTNV-1" vertex="1">
          <mxGeometry x="160" y="80" width="120" height="40" as="geometry" />
        </mxCell>
        <mxCell id="GZCbPghufDg6-JbwwUEW-2" value="" style="edgeStyle=orthogonalEdgeStyle;rounded=0;orthogonalLoop=1;jettySize=auto;html=1;" edge="1" parent="WIyWlLk6GJQsqaUBKTNV-1" source="WIyWlLk6GJQsqaUBKTNV-6" target="GZCbPghufDg6-JbwwUEW-1">
          <mxGeometry relative="1" as="geometry" />
        </mxCell>
        <mxCell id="GZCbPghufDg6-JbwwUEW-62" value="" style="edgeStyle=orthogonalEdgeStyle;rounded=0;orthogonalLoop=1;jettySize=auto;html=1;" edge="1" parent="WIyWlLk6GJQsqaUBKTNV-1" source="WIyWlLk6GJQsqaUBKTNV-6" target="WIyWlLk6GJQsqaUBKTNV-10">
          <mxGeometry relative="1" as="geometry" />
        </mxCell>
        <mxCell id="WIyWlLk6GJQsqaUBKTNV-6" value="是否国际" style="rhombus;whiteSpace=wrap;html=1;shadow=0;fontFamily=Helvetica;fontSize=12;align=center;strokeWidth=1;spacing=6;spacingTop=-4;" parent="WIyWlLk6GJQsqaUBKTNV-1" vertex="1">
          <mxGeometry x="170" y="170" width="100" height="80" as="geometry" />
        </mxCell>
        <mxCell id="GZCbPghufDg6-JbwwUEW-75" value="" style="edgeStyle=orthogonalEdgeStyle;rounded=0;orthogonalLoop=1;jettySize=auto;html=1;" edge="1" parent="WIyWlLk6GJQsqaUBKTNV-1" source="WIyWlLk6GJQsqaUBKTNV-10" target="GZCbPghufDg6-JbwwUEW-74">
          <mxGeometry relative="1" as="geometry" />
        </mxCell>
        <mxCell id="GZCbPghufDg6-JbwwUEW-141" style="edgeStyle=orthogonalEdgeStyle;rounded=0;orthogonalLoop=1;jettySize=auto;html=1;exitX=0.5;exitY=1;exitDx=0;exitDy=0;entryX=0;entryY=0.75;entryDx=0;entryDy=0;" edge="1" parent="WIyWlLk6GJQsqaUBKTNV-1" source="WIyWlLk6GJQsqaUBKTNV-10" target="GZCbPghufDg6-JbwwUEW-13">
          <mxGeometry relative="1" as="geometry">
            <Array as="points">
              <mxPoint x="220" y="1040" />
              <mxPoint x="1938" y="1040" />
            </Array>
          </mxGeometry>
        </mxCell>
        <mxCell id="WIyWlLk6GJQsqaUBKTNV-10" value="是否支持往返&amp;amp;当前所选程为往返" style="rhombus;whiteSpace=wrap;html=1;shadow=0;fontFamily=Helvetica;fontSize=12;align=center;strokeWidth=1;spacing=6;spacingTop=-4;" parent="WIyWlLk6GJQsqaUBKTNV-1" vertex="1">
          <mxGeometry x="170" y="290" width="100" height="80" as="geometry" />
        </mxCell>
        <mxCell id="GZCbPghufDg6-JbwwUEW-4" value="" style="edgeStyle=orthogonalEdgeStyle;rounded=0;orthogonalLoop=1;jettySize=auto;html=1;" edge="1" parent="WIyWlLk6GJQsqaUBKTNV-1" source="GZCbPghufDg6-JbwwUEW-1" target="GZCbPghufDg6-JbwwUEW-3">
          <mxGeometry relative="1" as="geometry" />
        </mxCell>
        <mxCell id="GZCbPghufDg6-JbwwUEW-19" style="edgeStyle=orthogonalEdgeStyle;rounded=0;orthogonalLoop=1;jettySize=auto;html=1;exitX=0.5;exitY=0;exitDx=0;exitDy=0;entryX=0.5;entryY=0;entryDx=0;entryDy=0;" edge="1" parent="WIyWlLk6GJQsqaUBKTNV-1" source="GZCbPghufDg6-JbwwUEW-1" target="GZCbPghufDg6-JbwwUEW-13">
          <mxGeometry relative="1" as="geometry">
            <Array as="points">
              <mxPoint x="400" y="130" />
              <mxPoint x="2000" y="130" />
              <mxPoint x="2000" y="860" />
            </Array>
          </mxGeometry>
        </mxCell>
        <mxCell id="GZCbPghufDg6-JbwwUEW-1" value="是否国际支持往返" style="rhombus;whiteSpace=wrap;html=1;shadow=0;strokeWidth=1;spacing=6;spacingTop=-4;" vertex="1" parent="WIyWlLk6GJQsqaUBKTNV-1">
          <mxGeometry x="360" y="170" width="80" height="80" as="geometry" />
        </mxCell>
        <mxCell id="GZCbPghufDg6-JbwwUEW-6" value="" style="edgeStyle=orthogonalEdgeStyle;rounded=0;orthogonalLoop=1;jettySize=auto;html=1;" edge="1" parent="WIyWlLk6GJQsqaUBKTNV-1" source="GZCbPghufDg6-JbwwUEW-3" target="GZCbPghufDg6-JbwwUEW-5">
          <mxGeometry relative="1" as="geometry" />
        </mxCell>
        <mxCell id="GZCbPghufDg6-JbwwUEW-64" style="edgeStyle=orthogonalEdgeStyle;rounded=0;orthogonalLoop=1;jettySize=auto;html=1;exitX=0.5;exitY=0;exitDx=0;exitDy=0;" edge="1" parent="WIyWlLk6GJQsqaUBKTNV-1" source="GZCbPghufDg6-JbwwUEW-3">
          <mxGeometry relative="1" as="geometry">
            <mxPoint x="560" y="130" as="targetPoint" />
          </mxGeometry>
        </mxCell>
        <mxCell id="GZCbPghufDg6-JbwwUEW-3" value="是否国际支持多程" style="rhombus;whiteSpace=wrap;html=1;shadow=0;strokeWidth=1;spacing=6;spacingTop=-4;" vertex="1" parent="WIyWlLk6GJQsqaUBKTNV-1">
          <mxGeometry x="520" y="170" width="80" height="80" as="geometry" />
        </mxCell>
        <mxCell id="GZCbPghufDg6-JbwwUEW-8" value="" style="edgeStyle=orthogonalEdgeStyle;rounded=0;orthogonalLoop=1;jettySize=auto;html=1;" edge="1" parent="WIyWlLk6GJQsqaUBKTNV-1" source="GZCbPghufDg6-JbwwUEW-5" target="GZCbPghufDg6-JbwwUEW-7">
          <mxGeometry relative="1" as="geometry" />
        </mxCell>
        <mxCell id="GZCbPghufDg6-JbwwUEW-5" value="是否因公出行" style="rhombus;whiteSpace=wrap;html=1;shadow=0;strokeWidth=1;spacing=6;spacingTop=-4;" vertex="1" parent="WIyWlLk6GJQsqaUBKTNV-1">
          <mxGeometry x="680" y="170" width="80" height="80" as="geometry" />
        </mxCell>
        <mxCell id="GZCbPghufDg6-JbwwUEW-10" value="" style="edgeStyle=orthogonalEdgeStyle;rounded=0;orthogonalLoop=1;jettySize=auto;html=1;" edge="1" parent="WIyWlLk6GJQsqaUBKTNV-1" source="GZCbPghufDg6-JbwwUEW-7" target="GZCbPghufDg6-JbwwUEW-9">
          <mxGeometry relative="1" as="geometry" />
        </mxCell>
        <mxCell id="GZCbPghufDg6-JbwwUEW-7" value="国内国际审批单同时开启" style="rhombus;whiteSpace=wrap;html=1;shadow=0;strokeWidth=1;spacing=6;spacingTop=-4;" vertex="1" parent="WIyWlLk6GJQsqaUBKTNV-1">
          <mxGeometry x="840" y="170" width="80" height="80" as="geometry" />
        </mxCell>
        <mxCell id="GZCbPghufDg6-JbwwUEW-151" value="" style="edgeStyle=orthogonalEdgeStyle;rounded=0;orthogonalLoop=1;jettySize=auto;html=1;" edge="1" parent="WIyWlLk6GJQsqaUBKTNV-1" source="GZCbPghufDg6-JbwwUEW-9" target="GZCbPghufDg6-JbwwUEW-150">
          <mxGeometry relative="1" as="geometry" />
        </mxCell>
        <mxCell id="GZCbPghufDg6-JbwwUEW-9" value="选择了国内审批单&lt;b&gt;&lt;font style=&quot;&quot;&gt;&lt;span style=&quot;text-align: left;&quot;&gt;&lt;font style=&quot;color: light-dark(rgb(249, 6, 6), rgb(237, 237, 237)); font-size: 14px;&quot;&gt;domOrInt&lt;/font&gt;&lt;/span&gt;&lt;/font&gt;&lt;/b&gt;" style="rhombus;whiteSpace=wrap;html=1;shadow=0;strokeWidth=1;spacing=6;spacingTop=-4;" vertex="1" parent="WIyWlLk6GJQsqaUBKTNV-1">
          <mxGeometry x="980" y="160" width="110" height="100" as="geometry" />
        </mxCell>
        <mxCell id="GZCbPghufDg6-JbwwUEW-30" value="" style="edgeStyle=orthogonalEdgeStyle;rounded=0;orthogonalLoop=1;jettySize=auto;html=1;" edge="1" parent="WIyWlLk6GJQsqaUBKTNV-1" source="GZCbPghufDg6-JbwwUEW-11" target="GZCbPghufDg6-JbwwUEW-29">
          <mxGeometry relative="1" as="geometry" />
        </mxCell>
        <mxCell id="GZCbPghufDg6-JbwwUEW-69" style="edgeStyle=orthogonalEdgeStyle;rounded=0;orthogonalLoop=1;jettySize=auto;html=1;exitX=1;exitY=0.5;exitDx=0;exitDy=0;" edge="1" parent="WIyWlLk6GJQsqaUBKTNV-1" source="GZCbPghufDg6-JbwwUEW-11">
          <mxGeometry relative="1" as="geometry">
            <mxPoint x="1998" y="210" as="targetPoint" />
          </mxGeometry>
        </mxCell>
        <mxCell id="GZCbPghufDg6-JbwwUEW-11" value="是否非一体化场景" style="rhombus;whiteSpace=wrap;html=1;shadow=0;strokeWidth=1;spacing=6;spacingTop=-4;" vertex="1" parent="WIyWlLk6GJQsqaUBKTNV-1">
          <mxGeometry x="1298" y="170" width="80" height="80" as="geometry" />
        </mxCell>
        <mxCell id="GZCbPghufDg6-JbwwUEW-13" value="设置confirmTip" style="whiteSpace=wrap;html=1;shadow=0;strokeWidth=1;spacing=6;spacingTop=-4;" vertex="1" parent="WIyWlLk6GJQsqaUBKTNV-1">
          <mxGeometry x="1938" y="993" width="120" height="70" as="geometry" />
        </mxCell>
        <mxCell id="GZCbPghufDg6-JbwwUEW-15" value="Yes" style="text;html=1;align=center;verticalAlign=middle;resizable=0;points=[];autosize=1;strokeColor=none;fillColor=none;" vertex="1" parent="WIyWlLk6GJQsqaUBKTNV-1">
          <mxGeometry x="280" y="180" width="40" height="30" as="geometry" />
        </mxCell>
        <mxCell id="GZCbPghufDg6-JbwwUEW-16" value="Yes" style="text;html=1;align=center;verticalAlign=middle;resizable=0;points=[];autosize=1;strokeColor=none;fillColor=none;" vertex="1" parent="WIyWlLk6GJQsqaUBKTNV-1">
          <mxGeometry x="400" y="140" width="40" height="30" as="geometry" />
        </mxCell>
        <mxCell id="GZCbPghufDg6-JbwwUEW-18" value="Yes" style="text;html=1;align=center;verticalAlign=middle;resizable=0;points=[];autosize=1;strokeColor=none;fillColor=none;" vertex="1" parent="WIyWlLk6GJQsqaUBKTNV-1">
          <mxGeometry x="770" y="180" width="40" height="30" as="geometry" />
        </mxCell>
        <mxCell id="GZCbPghufDg6-JbwwUEW-21" value="Yes" style="text;html=1;align=center;verticalAlign=middle;resizable=0;points=[];autosize=1;strokeColor=none;fillColor=none;" vertex="1" parent="WIyWlLk6GJQsqaUBKTNV-1">
          <mxGeometry x="570" y="140" width="40" height="30" as="geometry" />
        </mxCell>
        <mxCell id="GZCbPghufDg6-JbwwUEW-22" value="No" style="text;html=1;align=center;verticalAlign=middle;resizable=0;points=[];autosize=1;strokeColor=none;fillColor=none;" vertex="1" parent="WIyWlLk6GJQsqaUBKTNV-1">
          <mxGeometry x="610" y="180" width="40" height="30" as="geometry" />
        </mxCell>
        <mxCell id="GZCbPghufDg6-JbwwUEW-23" value="No" style="text;html=1;align=center;verticalAlign=middle;resizable=0;points=[];autosize=1;strokeColor=none;fillColor=none;" vertex="1" parent="WIyWlLk6GJQsqaUBKTNV-1">
          <mxGeometry x="450" y="180" width="40" height="30" as="geometry" />
        </mxCell>
        <mxCell id="GZCbPghufDg6-JbwwUEW-26" value="Yes" style="text;html=1;align=center;verticalAlign=middle;resizable=0;points=[];autosize=1;strokeColor=none;fillColor=none;" vertex="1" parent="WIyWlLk6GJQsqaUBKTNV-1">
          <mxGeometry x="930" y="180" width="40" height="30" as="geometry" />
        </mxCell>
        <mxCell id="GZCbPghufDg6-JbwwUEW-39" value="" style="edgeStyle=orthogonalEdgeStyle;rounded=0;orthogonalLoop=1;jettySize=auto;html=1;" edge="1" parent="WIyWlLk6GJQsqaUBKTNV-1" source="GZCbPghufDg6-JbwwUEW-29" target="GZCbPghufDg6-JbwwUEW-38">
          <mxGeometry relative="1" as="geometry" />
        </mxCell>
        <mxCell id="GZCbPghufDg6-JbwwUEW-29" value="是否屏蔽国际航班，但选到国际航班" style="rhombus;whiteSpace=wrap;html=1;shadow=0;strokeWidth=1;spacing=6;spacingTop=-4;" vertex="1" parent="WIyWlLk6GJQsqaUBKTNV-1">
          <mxGeometry x="1298" y="330" width="80" height="80" as="geometry" />
        </mxCell>
        <mxCell id="GZCbPghufDg6-JbwwUEW-32" value="Yes" style="text;html=1;align=center;verticalAlign=middle;resizable=0;points=[];autosize=1;strokeColor=none;fillColor=none;" vertex="1" parent="WIyWlLk6GJQsqaUBKTNV-1">
          <mxGeometry x="1418" y="180" width="40" height="30" as="geometry" />
        </mxCell>
        <mxCell id="GZCbPghufDg6-JbwwUEW-33" value="No" style="text;html=1;align=center;verticalAlign=middle;resizable=0;points=[];autosize=1;strokeColor=none;fillColor=none;" vertex="1" parent="WIyWlLk6GJQsqaUBKTNV-1">
          <mxGeometry x="1348" y="270" width="40" height="30" as="geometry" />
        </mxCell>
        <mxCell id="GZCbPghufDg6-JbwwUEW-42" value="" style="edgeStyle=orthogonalEdgeStyle;rounded=0;orthogonalLoop=1;jettySize=auto;html=1;" edge="1" parent="WIyWlLk6GJQsqaUBKTNV-1" source="GZCbPghufDg6-JbwwUEW-38" target="GZCbPghufDg6-JbwwUEW-41">
          <mxGeometry relative="1" as="geometry" />
        </mxCell>
        <mxCell id="GZCbPghufDg6-JbwwUEW-68" style="edgeStyle=orthogonalEdgeStyle;rounded=0;orthogonalLoop=1;jettySize=auto;html=1;exitX=1;exitY=0.5;exitDx=0;exitDy=0;" edge="1" parent="WIyWlLk6GJQsqaUBKTNV-1" source="GZCbPghufDg6-JbwwUEW-38">
          <mxGeometry relative="1" as="geometry">
            <mxPoint x="1998" y="370" as="targetPoint" />
          </mxGeometry>
        </mxCell>
        <mxCell id="GZCbPghufDg6-JbwwUEW-38" value="是否Online" style="rhombus;whiteSpace=wrap;html=1;shadow=0;strokeWidth=1;spacing=6;spacingTop=-4;" vertex="1" parent="WIyWlLk6GJQsqaUBKTNV-1">
          <mxGeometry x="1458" y="330" width="80" height="80" as="geometry" />
        </mxCell>
        <mxCell id="GZCbPghufDg6-JbwwUEW-40" value="Yes" style="text;html=1;align=center;verticalAlign=middle;resizable=0;points=[];autosize=1;strokeColor=none;fillColor=none;" vertex="1" parent="WIyWlLk6GJQsqaUBKTNV-1">
          <mxGeometry x="1388" y="335" width="40" height="30" as="geometry" />
        </mxCell>
        <mxCell id="GZCbPghufDg6-JbwwUEW-48" value="" style="edgeStyle=orthogonalEdgeStyle;rounded=0;orthogonalLoop=1;jettySize=auto;html=1;" edge="1" parent="WIyWlLk6GJQsqaUBKTNV-1" source="GZCbPghufDg6-JbwwUEW-41" target="GZCbPghufDg6-JbwwUEW-47">
          <mxGeometry relative="1" as="geometry" />
        </mxCell>
        <mxCell id="GZCbPghufDg6-JbwwUEW-41" value="是否Offline" style="rhombus;whiteSpace=wrap;html=1;shadow=0;strokeWidth=1;spacing=6;spacingTop=-4;" vertex="1" parent="WIyWlLk6GJQsqaUBKTNV-1">
          <mxGeometry x="1458" y="470" width="80" height="80" as="geometry" />
        </mxCell>
        <mxCell id="GZCbPghufDg6-JbwwUEW-45" value="No" style="text;html=1;align=center;verticalAlign=middle;resizable=0;points=[];autosize=1;strokeColor=none;fillColor=none;" vertex="1" parent="WIyWlLk6GJQsqaUBKTNV-1">
          <mxGeometry x="1498" y="420" width="40" height="30" as="geometry" />
        </mxCell>
        <mxCell id="GZCbPghufDg6-JbwwUEW-46" value="Yes" style="text;html=1;align=center;verticalAlign=middle;resizable=0;points=[];autosize=1;strokeColor=none;fillColor=none;" vertex="1" parent="WIyWlLk6GJQsqaUBKTNV-1">
          <mxGeometry x="1578" y="335" width="40" height="30" as="geometry" />
        </mxCell>
        <mxCell id="GZCbPghufDg6-JbwwUEW-50" value="" style="edgeStyle=orthogonalEdgeStyle;rounded=0;orthogonalLoop=1;jettySize=auto;html=1;" edge="1" parent="WIyWlLk6GJQsqaUBKTNV-1" source="GZCbPghufDg6-JbwwUEW-47" target="GZCbPghufDg6-JbwwUEW-49">
          <mxGeometry relative="1" as="geometry" />
        </mxCell>
        <mxCell id="GZCbPghufDg6-JbwwUEW-66" style="edgeStyle=orthogonalEdgeStyle;rounded=0;orthogonalLoop=1;jettySize=auto;html=1;exitX=1;exitY=0.5;exitDx=0;exitDy=0;" edge="1" parent="WIyWlLk6GJQsqaUBKTNV-1" source="GZCbPghufDg6-JbwwUEW-47">
          <mxGeometry relative="1" as="geometry">
            <mxPoint x="1998" y="510" as="targetPoint" />
          </mxGeometry>
        </mxCell>
        <mxCell id="GZCbPghufDg6-JbwwUEW-47" value="是否支持因公&amp;amp;是否支持因私" style="rhombus;whiteSpace=wrap;html=1;shadow=0;strokeWidth=1;spacing=6;spacingTop=-4;" vertex="1" parent="WIyWlLk6GJQsqaUBKTNV-1">
          <mxGeometry x="1618" y="470" width="80" height="80" as="geometry" />
        </mxCell>
        <mxCell id="GZCbPghufDg6-JbwwUEW-65" style="edgeStyle=orthogonalEdgeStyle;rounded=0;orthogonalLoop=1;jettySize=auto;html=1;exitX=1;exitY=0.5;exitDx=0;exitDy=0;" edge="1" parent="WIyWlLk6GJQsqaUBKTNV-1" source="GZCbPghufDg6-JbwwUEW-49">
          <mxGeometry relative="1" as="geometry">
            <mxPoint x="1998" y="625" as="targetPoint" />
          </mxGeometry>
        </mxCell>
        <mxCell id="GZCbPghufDg6-JbwwUEW-49" value="当前所选因私出行" style="rhombus;whiteSpace=wrap;html=1;shadow=0;strokeWidth=1;spacing=6;spacingTop=-4;" vertex="1" parent="WIyWlLk6GJQsqaUBKTNV-1">
          <mxGeometry x="1618" y="585" width="80" height="80" as="geometry" />
        </mxCell>
        <mxCell id="GZCbPghufDg6-JbwwUEW-51" value="No" style="text;html=1;align=center;verticalAlign=middle;resizable=0;points=[];autosize=1;strokeColor=none;fillColor=none;" vertex="1" parent="WIyWlLk6GJQsqaUBKTNV-1">
          <mxGeometry x="1678" y="550" width="40" height="30" as="geometry" />
        </mxCell>
        <mxCell id="GZCbPghufDg6-JbwwUEW-52" value="Yes" style="text;html=1;align=center;verticalAlign=middle;resizable=0;points=[];autosize=1;strokeColor=none;fillColor=none;" vertex="1" parent="WIyWlLk6GJQsqaUBKTNV-1">
          <mxGeometry x="1548" y="470" width="40" height="30" as="geometry" />
        </mxCell>
        <mxCell id="GZCbPghufDg6-JbwwUEW-57" value="Yes" style="text;html=1;align=center;verticalAlign=middle;resizable=0;points=[];autosize=1;strokeColor=none;fillColor=none;" vertex="1" parent="WIyWlLk6GJQsqaUBKTNV-1">
          <mxGeometry x="1808" y="590" width="40" height="30" as="geometry" />
        </mxCell>
        <mxCell id="GZCbPghufDg6-JbwwUEW-60" value="End" style="rounded=1;whiteSpace=wrap;html=1;shadow=0;strokeWidth=1;spacing=6;spacingTop=-4;" vertex="1" parent="WIyWlLk6GJQsqaUBKTNV-1">
          <mxGeometry x="1300" y="1310" width="120" height="60" as="geometry" />
        </mxCell>
        <mxCell id="GZCbPghufDg6-JbwwUEW-63" value="No" style="text;html=1;align=center;verticalAlign=middle;resizable=0;points=[];autosize=1;strokeColor=none;fillColor=none;" vertex="1" parent="WIyWlLk6GJQsqaUBKTNV-1">
          <mxGeometry x="230" y="250" width="40" height="30" as="geometry" />
        </mxCell>
        <mxCell id="GZCbPghufDg6-JbwwUEW-67" value="Yes" style="text;html=1;align=center;verticalAlign=middle;resizable=0;points=[];autosize=1;strokeColor=none;fillColor=none;" vertex="1" parent="WIyWlLk6GJQsqaUBKTNV-1">
          <mxGeometry x="1808" y="470" width="40" height="30" as="geometry" />
        </mxCell>
        <mxCell id="GZCbPghufDg6-JbwwUEW-78" value="" style="edgeStyle=orthogonalEdgeStyle;rounded=0;orthogonalLoop=1;jettySize=auto;html=1;" edge="1" parent="WIyWlLk6GJQsqaUBKTNV-1" source="GZCbPghufDg6-JbwwUEW-74" target="GZCbPghufDg6-JbwwUEW-77">
          <mxGeometry relative="1" as="geometry" />
        </mxCell>
        <mxCell id="GZCbPghufDg6-JbwwUEW-83" value="" style="edgeStyle=orthogonalEdgeStyle;rounded=0;orthogonalLoop=1;jettySize=auto;html=1;" edge="1" parent="WIyWlLk6GJQsqaUBKTNV-1" source="GZCbPghufDg6-JbwwUEW-74" target="GZCbPghufDg6-JbwwUEW-82">
          <mxGeometry relative="1" as="geometry" />
        </mxCell>
        <mxCell id="GZCbPghufDg6-JbwwUEW-74" value="当前所选是否多程" style="rhombus;whiteSpace=wrap;html=1;shadow=0;strokeWidth=1;spacing=6;spacingTop=-4;" vertex="1" parent="WIyWlLk6GJQsqaUBKTNV-1">
          <mxGeometry x="360" y="290" width="80" height="80" as="geometry" />
        </mxCell>
        <mxCell id="GZCbPghufDg6-JbwwUEW-76" value="No" style="text;html=1;align=center;verticalAlign=middle;resizable=0;points=[];autosize=1;strokeColor=none;fillColor=none;" vertex="1" parent="WIyWlLk6GJQsqaUBKTNV-1">
          <mxGeometry x="280" y="290" width="40" height="30" as="geometry" />
        </mxCell>
        <mxCell id="GZCbPghufDg6-JbwwUEW-79" style="edgeStyle=orthogonalEdgeStyle;rounded=0;orthogonalLoop=1;jettySize=auto;html=1;" edge="1" parent="WIyWlLk6GJQsqaUBKTNV-1" source="GZCbPghufDg6-JbwwUEW-77">
          <mxGeometry relative="1" as="geometry">
            <mxPoint x="690" y="330" as="targetPoint" />
          </mxGeometry>
        </mxCell>
        <mxCell id="GZCbPghufDg6-JbwwUEW-139" style="edgeStyle=orthogonalEdgeStyle;rounded=0;orthogonalLoop=1;jettySize=auto;html=1;exitX=0.5;exitY=0;exitDx=0;exitDy=0;" edge="1" parent="WIyWlLk6GJQsqaUBKTNV-1">
          <mxGeometry relative="1" as="geometry">
            <mxPoint x="900" y="1040" as="targetPoint" />
            <mxPoint x="560" y="300" as="sourcePoint" />
            <Array as="points">
              <mxPoint x="560" y="280" />
              <mxPoint x="900" y="280" />
            </Array>
          </mxGeometry>
        </mxCell>
        <mxCell id="GZCbPghufDg6-JbwwUEW-77" value="是否大于两程（国内最多支持2程）" style="rhombus;whiteSpace=wrap;html=1;shadow=0;strokeWidth=1;spacing=6;spacingTop=-4;" vertex="1" parent="WIyWlLk6GJQsqaUBKTNV-1">
          <mxGeometry x="520" y="290" width="80" height="80" as="geometry" />
        </mxCell>
        <mxCell id="GZCbPghufDg6-JbwwUEW-80" value="Yes" style="text;html=1;align=center;verticalAlign=middle;resizable=0;points=[];autosize=1;strokeColor=none;fillColor=none;" vertex="1" parent="WIyWlLk6GJQsqaUBKTNV-1">
          <mxGeometry x="450" y="300" width="40" height="30" as="geometry" />
        </mxCell>
        <mxCell id="GZCbPghufDg6-JbwwUEW-81" value="No" style="text;html=1;align=center;verticalAlign=middle;resizable=0;points=[];autosize=1;strokeColor=none;fillColor=none;" vertex="1" parent="WIyWlLk6GJQsqaUBKTNV-1">
          <mxGeometry x="630" y="300" width="40" height="30" as="geometry" />
        </mxCell>
        <mxCell id="GZCbPghufDg6-JbwwUEW-89" value="" style="edgeStyle=orthogonalEdgeStyle;rounded=0;orthogonalLoop=1;jettySize=auto;html=1;" edge="1" parent="WIyWlLk6GJQsqaUBKTNV-1" source="GZCbPghufDg6-JbwwUEW-82" target="GZCbPghufDg6-JbwwUEW-88">
          <mxGeometry relative="1" as="geometry" />
        </mxCell>
        <mxCell id="GZCbPghufDg6-JbwwUEW-102" value="" style="edgeStyle=orthogonalEdgeStyle;rounded=0;orthogonalLoop=1;jettySize=auto;html=1;" edge="1" parent="WIyWlLk6GJQsqaUBKTNV-1" source="GZCbPghufDg6-JbwwUEW-82" target="GZCbPghufDg6-JbwwUEW-101">
          <mxGeometry relative="1" as="geometry" />
        </mxCell>
        <mxCell id="GZCbPghufDg6-JbwwUEW-82" value="是否因公出行" style="rhombus;whiteSpace=wrap;html=1;shadow=0;strokeWidth=1;spacing=6;spacingTop=-4;" vertex="1" parent="WIyWlLk6GJQsqaUBKTNV-1">
          <mxGeometry x="360" y="420" width="80" height="80" as="geometry" />
        </mxCell>
        <mxCell id="GZCbPghufDg6-JbwwUEW-147" style="edgeStyle=orthogonalEdgeStyle;rounded=0;orthogonalLoop=1;jettySize=auto;html=1;exitX=1;exitY=0.5;exitDx=0;exitDy=0;" edge="1" parent="WIyWlLk6GJQsqaUBKTNV-1" source="GZCbPghufDg6-JbwwUEW-84">
          <mxGeometry relative="1" as="geometry">
            <mxPoint x="900" y="329.75" as="targetPoint" />
          </mxGeometry>
        </mxCell>
        <mxCell id="GZCbPghufDg6-JbwwUEW-84" value="当前国内不支持多程" style="rhombus;whiteSpace=wrap;html=1;shadow=0;strokeWidth=1;spacing=6;spacingTop=-4;" vertex="1" parent="WIyWlLk6GJQsqaUBKTNV-1">
          <mxGeometry x="690" y="290" width="80" height="80" as="geometry" />
        </mxCell>
        <mxCell id="GZCbPghufDg6-JbwwUEW-91" style="edgeStyle=orthogonalEdgeStyle;rounded=0;orthogonalLoop=1;jettySize=auto;html=1;exitX=0.5;exitY=1;exitDx=0;exitDy=0;entryX=0.5;entryY=0;entryDx=0;entryDy=0;" edge="1" parent="WIyWlLk6GJQsqaUBKTNV-1" source="GZCbPghufDg6-JbwwUEW-88" target="GZCbPghufDg6-JbwwUEW-90">
          <mxGeometry relative="1" as="geometry" />
        </mxCell>
        <mxCell id="GZCbPghufDg6-JbwwUEW-88" value="国内国际审批单同时开启" style="rhombus;whiteSpace=wrap;html=1;shadow=0;strokeWidth=1;spacing=6;spacingTop=-4;" vertex="1" parent="WIyWlLk6GJQsqaUBKTNV-1">
          <mxGeometry x="360" y="550" width="80" height="80" as="geometry" />
        </mxCell>
        <mxCell id="GZCbPghufDg6-JbwwUEW-157" style="edgeStyle=orthogonalEdgeStyle;rounded=0;orthogonalLoop=1;jettySize=auto;html=1;exitX=0.5;exitY=1;exitDx=0;exitDy=0;entryX=0.5;entryY=0;entryDx=0;entryDy=0;" edge="1" parent="WIyWlLk6GJQsqaUBKTNV-1" source="GZCbPghufDg6-JbwwUEW-90" target="GZCbPghufDg6-JbwwUEW-156">
          <mxGeometry relative="1" as="geometry" />
        </mxCell>
        <mxCell id="GZCbPghufDg6-JbwwUEW-90" value="选择了国内审批单&lt;b&gt;&lt;span style=&quot;text-align: left;&quot;&gt;&lt;font style=&quot;color: light-dark(rgb(249, 6, 6), rgb(237, 237, 237)); font-size: 14px;&quot;&gt;domOrInt&lt;/font&gt;&lt;/span&gt;&lt;/b&gt;" style="rhombus;whiteSpace=wrap;html=1;shadow=0;strokeWidth=1;spacing=6;spacingTop=-4;" vertex="1" parent="WIyWlLk6GJQsqaUBKTNV-1">
          <mxGeometry x="350" y="665" width="100" height="85" as="geometry" />
        </mxCell>
        <mxCell id="GZCbPghufDg6-JbwwUEW-159" style="edgeStyle=orthogonalEdgeStyle;rounded=0;orthogonalLoop=1;jettySize=auto;html=1;exitX=0.5;exitY=1;exitDx=0;exitDy=0;" edge="1" parent="WIyWlLk6GJQsqaUBKTNV-1" source="GZCbPghufDg6-JbwwUEW-92">
          <mxGeometry relative="1" as="geometry">
            <mxPoint x="399.55555555555543" y="1040" as="targetPoint" />
          </mxGeometry>
        </mxCell>
        <mxCell id="GZCbPghufDg6-JbwwUEW-92" value="是否非一体化场景" style="rhombus;whiteSpace=wrap;html=1;shadow=0;strokeWidth=1;spacing=6;spacingTop=-4;" vertex="1" parent="WIyWlLk6GJQsqaUBKTNV-1">
          <mxGeometry x="360" y="923" width="80" height="80" as="geometry" />
        </mxCell>
        <mxCell id="GZCbPghufDg6-JbwwUEW-94" value="Yes" style="text;html=1;align=center;verticalAlign=middle;resizable=0;points=[];autosize=1;strokeColor=none;fillColor=none;" vertex="1" parent="WIyWlLk6GJQsqaUBKTNV-1">
          <mxGeometry x="400" y="510" width="40" height="30" as="geometry" />
        </mxCell>
        <mxCell id="GZCbPghufDg6-JbwwUEW-95" value="No" style="text;html=1;align=center;verticalAlign=middle;resizable=0;points=[];autosize=1;strokeColor=none;fillColor=none;" vertex="1" parent="WIyWlLk6GJQsqaUBKTNV-1">
          <mxGeometry x="400" y="370" width="40" height="30" as="geometry" />
        </mxCell>
        <mxCell id="GZCbPghufDg6-JbwwUEW-96" value="Yes" style="text;html=1;align=center;verticalAlign=middle;resizable=0;points=[];autosize=1;strokeColor=none;fillColor=none;" vertex="1" parent="WIyWlLk6GJQsqaUBKTNV-1">
          <mxGeometry x="400" y="630" width="40" height="30" as="geometry" />
        </mxCell>
        <mxCell id="GZCbPghufDg6-JbwwUEW-105" value="" style="edgeStyle=orthogonalEdgeStyle;rounded=0;orthogonalLoop=1;jettySize=auto;html=1;" edge="1" parent="WIyWlLk6GJQsqaUBKTNV-1" source="GZCbPghufDg6-JbwwUEW-101" target="GZCbPghufDg6-JbwwUEW-104">
          <mxGeometry relative="1" as="geometry" />
        </mxCell>
        <mxCell id="GZCbPghufDg6-JbwwUEW-146" style="edgeStyle=orthogonalEdgeStyle;rounded=0;orthogonalLoop=1;jettySize=auto;html=1;exitX=0.5;exitY=1;exitDx=0;exitDy=0;" edge="1" parent="WIyWlLk6GJQsqaUBKTNV-1" source="GZCbPghufDg6-JbwwUEW-101">
          <mxGeometry relative="1" as="geometry">
            <mxPoint x="560" y="1040" as="targetPoint" />
            <Array as="points">
              <mxPoint x="560" y="910" />
              <mxPoint x="560" y="910" />
            </Array>
          </mxGeometry>
        </mxCell>
        <mxCell id="GZCbPghufDg6-JbwwUEW-101" value="不支持国内&amp;amp;Online" style="rhombus;whiteSpace=wrap;html=1;shadow=0;strokeWidth=1;spacing=6;spacingTop=-4;" vertex="1" parent="WIyWlLk6GJQsqaUBKTNV-1">
          <mxGeometry x="520" y="420" width="80" height="80" as="geometry" />
        </mxCell>
        <mxCell id="GZCbPghufDg6-JbwwUEW-103" value="No" style="text;html=1;align=center;verticalAlign=middle;resizable=0;points=[];autosize=1;strokeColor=none;fillColor=none;" vertex="1" parent="WIyWlLk6GJQsqaUBKTNV-1">
          <mxGeometry x="450" y="420" width="40" height="30" as="geometry" />
        </mxCell>
        <mxCell id="GZCbPghufDg6-JbwwUEW-110" value="" style="edgeStyle=orthogonalEdgeStyle;rounded=0;orthogonalLoop=1;jettySize=auto;html=1;" edge="1" parent="WIyWlLk6GJQsqaUBKTNV-1" source="GZCbPghufDg6-JbwwUEW-104" target="GZCbPghufDg6-JbwwUEW-109">
          <mxGeometry relative="1" as="geometry" />
        </mxCell>
        <mxCell id="GZCbPghufDg6-JbwwUEW-104" value="不支持国内&amp;amp;Offline" style="rhombus;whiteSpace=wrap;html=1;shadow=0;strokeWidth=1;spacing=6;spacingTop=-4;" vertex="1" parent="WIyWlLk6GJQsqaUBKTNV-1">
          <mxGeometry x="680" y="420" width="80" height="80" as="geometry" />
        </mxCell>
        <mxCell id="GZCbPghufDg6-JbwwUEW-107" value="No" style="text;html=1;align=center;verticalAlign=middle;resizable=0;points=[];autosize=1;strokeColor=none;fillColor=none;" vertex="1" parent="WIyWlLk6GJQsqaUBKTNV-1">
          <mxGeometry x="620" y="430" width="40" height="30" as="geometry" />
        </mxCell>
        <mxCell id="GZCbPghufDg6-JbwwUEW-114" value="" style="edgeStyle=orthogonalEdgeStyle;rounded=0;orthogonalLoop=1;jettySize=auto;html=1;" edge="1" parent="WIyWlLk6GJQsqaUBKTNV-1" source="GZCbPghufDg6-JbwwUEW-109" target="GZCbPghufDg6-JbwwUEW-113">
          <mxGeometry relative="1" as="geometry" />
        </mxCell>
        <mxCell id="GZCbPghufDg6-JbwwUEW-121" style="edgeStyle=orthogonalEdgeStyle;rounded=0;orthogonalLoop=1;jettySize=auto;html=1;exitX=1;exitY=0.5;exitDx=0;exitDy=0;" edge="1" parent="WIyWlLk6GJQsqaUBKTNV-1" source="GZCbPghufDg6-JbwwUEW-109">
          <mxGeometry relative="1" as="geometry">
            <mxPoint x="900" y="590" as="targetPoint" />
          </mxGeometry>
        </mxCell>
        <mxCell id="GZCbPghufDg6-JbwwUEW-109" value="因公因私均不支持国内" style="rhombus;whiteSpace=wrap;html=1;shadow=0;strokeWidth=1;spacing=6;spacingTop=-4;" vertex="1" parent="WIyWlLk6GJQsqaUBKTNV-1">
          <mxGeometry x="680" y="550" width="80" height="80" as="geometry" />
        </mxCell>
        <mxCell id="GZCbPghufDg6-JbwwUEW-112" value="Yes" style="text;html=1;align=center;verticalAlign=middle;resizable=0;points=[];autosize=1;strokeColor=none;fillColor=none;" vertex="1" parent="WIyWlLk6GJQsqaUBKTNV-1">
          <mxGeometry x="720" y="510" width="40" height="30" as="geometry" />
        </mxCell>
        <mxCell id="GZCbPghufDg6-JbwwUEW-122" style="edgeStyle=orthogonalEdgeStyle;rounded=0;orthogonalLoop=1;jettySize=auto;html=1;" edge="1" parent="WIyWlLk6GJQsqaUBKTNV-1" source="GZCbPghufDg6-JbwwUEW-113">
          <mxGeometry relative="1" as="geometry">
            <mxPoint x="900" y="720" as="targetPoint" />
          </mxGeometry>
        </mxCell>
        <mxCell id="GZCbPghufDg6-JbwwUEW-145" style="edgeStyle=orthogonalEdgeStyle;rounded=0;orthogonalLoop=1;jettySize=auto;html=1;exitX=0.5;exitY=1;exitDx=0;exitDy=0;" edge="1" parent="WIyWlLk6GJQsqaUBKTNV-1" source="GZCbPghufDg6-JbwwUEW-113">
          <mxGeometry relative="1" as="geometry">
            <mxPoint x="720" y="1040" as="targetPoint" />
          </mxGeometry>
        </mxCell>
        <mxCell id="GZCbPghufDg6-JbwwUEW-113" value="因私出行" style="rhombus;whiteSpace=wrap;html=1;shadow=0;strokeWidth=1;spacing=6;spacingTop=-4;" vertex="1" parent="WIyWlLk6GJQsqaUBKTNV-1">
          <mxGeometry x="680" y="680" width="80" height="80" as="geometry" />
        </mxCell>
        <mxCell id="GZCbPghufDg6-JbwwUEW-115" value="No" style="text;html=1;align=center;verticalAlign=middle;resizable=0;points=[];autosize=1;strokeColor=none;fillColor=none;" vertex="1" parent="WIyWlLk6GJQsqaUBKTNV-1">
          <mxGeometry x="730" y="635" width="40" height="30" as="geometry" />
        </mxCell>
        <mxCell id="GZCbPghufDg6-JbwwUEW-128" value="No" style="text;html=1;align=center;verticalAlign=middle;resizable=0;points=[];autosize=1;strokeColor=none;fillColor=none;" vertex="1" parent="WIyWlLk6GJQsqaUBKTNV-1">
          <mxGeometry x="787" y="560" width="40" height="30" as="geometry" />
        </mxCell>
        <mxCell id="GZCbPghufDg6-JbwwUEW-129" value="Yes" style="text;html=1;align=center;verticalAlign=middle;resizable=0;points=[];autosize=1;strokeColor=none;fillColor=none;" vertex="1" parent="WIyWlLk6GJQsqaUBKTNV-1">
          <mxGeometry x="787" y="690" width="40" height="30" as="geometry" />
        </mxCell>
        <mxCell id="GZCbPghufDg6-JbwwUEW-130" value="Yes" style="text;html=1;align=center;verticalAlign=middle;resizable=0;points=[];autosize=1;strokeColor=none;fillColor=none;" vertex="1" parent="WIyWlLk6GJQsqaUBKTNV-1">
          <mxGeometry x="730" y="933" width="40" height="30" as="geometry" />
        </mxCell>
        <mxCell id="GZCbPghufDg6-JbwwUEW-138" value="Yes" style="text;html=1;align=center;verticalAlign=middle;resizable=0;points=[];autosize=1;strokeColor=none;fillColor=none;" vertex="1" parent="WIyWlLk6GJQsqaUBKTNV-1">
          <mxGeometry x="800" y="300" width="40" height="30" as="geometry" />
        </mxCell>
        <mxCell id="GZCbPghufDg6-JbwwUEW-140" value="Yes" style="text;html=1;align=center;verticalAlign=middle;resizable=0;points=[];autosize=1;strokeColor=none;fillColor=none;" vertex="1" parent="WIyWlLk6GJQsqaUBKTNV-1">
          <mxGeometry x="560" y="270" width="40" height="30" as="geometry" />
        </mxCell>
        <mxCell id="GZCbPghufDg6-JbwwUEW-148" value="&lt;p data-pm-slice=&quot;1 1 []&quot;&gt;&lt;font style=&quot;font-size: 14px;&quot;&gt;&lt;br&gt;domOrInt&lt;br&gt;字段含义：是否国际&lt;br&gt;字段枚举：true || false || undefined&lt;br&gt;&lt;br&gt;isOnlyQueryPrice&lt;br&gt;字段含义：仅查价&lt;br&gt;字段枚举：true || false&lt;/font&gt;&lt;/p&gt;&lt;p data-pm-slice=&quot;1 1 []&quot;&gt;&lt;br&gt;&lt;/p&gt;" style="whiteSpace=wrap;html=1;shadow=0;strokeWidth=1;spacing=6;spacingTop=-4;fillColor=#fff2cc;strokeColor=#d6b656;align=left;" vertex="1" parent="WIyWlLk6GJQsqaUBKTNV-1">
          <mxGeometry x="980" y="497.5" width="310" height="155" as="geometry" />
        </mxCell>
        <mxCell id="GZCbPghufDg6-JbwwUEW-152" value="" style="edgeStyle=orthogonalEdgeStyle;rounded=0;orthogonalLoop=1;jettySize=auto;html=1;" edge="1" parent="WIyWlLk6GJQsqaUBKTNV-1" source="GZCbPghufDg6-JbwwUEW-150" target="GZCbPghufDg6-JbwwUEW-11">
          <mxGeometry relative="1" as="geometry" />
        </mxCell>
        <mxCell id="GZCbPghufDg6-JbwwUEW-150" value="非仅查价场景&lt;br&gt;&lt;span style=&quot;text-align: left;&quot;&gt;&lt;b style=&quot;&quot;&gt;&lt;font style=&quot;color: light-dark(rgb(241, 4, 4), rgb(237, 237, 237)); font-size: 14px;&quot;&gt;isOnlyQueryPrice&lt;/font&gt;&lt;/b&gt;&lt;/span&gt;" style="rhombus;whiteSpace=wrap;html=1;shadow=0;strokeWidth=1;spacing=6;spacingTop=-4;" vertex="1" parent="WIyWlLk6GJQsqaUBKTNV-1">
          <mxGeometry x="1120" y="160" width="130" height="100" as="geometry" />
        </mxCell>
        <mxCell id="GZCbPghufDg6-JbwwUEW-158" style="edgeStyle=orthogonalEdgeStyle;rounded=0;orthogonalLoop=1;jettySize=auto;html=1;exitX=0.5;exitY=1;exitDx=0;exitDy=0;entryX=0.5;entryY=0;entryDx=0;entryDy=0;" edge="1" parent="WIyWlLk6GJQsqaUBKTNV-1" source="GZCbPghufDg6-JbwwUEW-156" target="GZCbPghufDg6-JbwwUEW-92">
          <mxGeometry relative="1" as="geometry" />
        </mxCell>
        <mxCell id="GZCbPghufDg6-JbwwUEW-156" value="非仅查价场景&lt;br&gt;&lt;span style=&quot;text-align: left;&quot;&gt;&lt;b style=&quot;&quot;&gt;&lt;font style=&quot;color: light-dark(rgb(241, 4, 4), rgb(237, 237, 237)); font-size: 14px;&quot;&gt;isOnlyQueryPrice&lt;/font&gt;&lt;/b&gt;&lt;/span&gt;" style="rhombus;whiteSpace=wrap;html=1;shadow=0;strokeWidth=1;spacing=6;spacingTop=-4;" vertex="1" parent="WIyWlLk6GJQsqaUBKTNV-1">
          <mxGeometry x="335" y="790" width="130" height="100" as="geometry" />
        </mxCell>
        <mxCell id="GZCbPghufDg6-JbwwUEW-160" value="Yes" style="text;html=1;align=center;verticalAlign=middle;resizable=0;points=[];autosize=1;strokeColor=none;fillColor=none;" vertex="1" parent="WIyWlLk6GJQsqaUBKTNV-1">
          <mxGeometry x="400" y="750" width="40" height="30" as="geometry" />
        </mxCell>
        <mxCell id="GZCbPghufDg6-JbwwUEW-161" value="Yes" style="text;html=1;align=center;verticalAlign=middle;resizable=0;points=[];autosize=1;strokeColor=none;fillColor=none;" vertex="1" parent="WIyWlLk6GJQsqaUBKTNV-1">
          <mxGeometry x="394" y="890" width="40" height="30" as="geometry" />
        </mxCell>
        <mxCell id="GZCbPghufDg6-JbwwUEW-162" value="Yes" style="text;html=1;align=center;verticalAlign=middle;resizable=0;points=[];autosize=1;strokeColor=none;fillColor=none;" vertex="1" parent="WIyWlLk6GJQsqaUBKTNV-1">
          <mxGeometry x="394" y="1003" width="40" height="30" as="geometry" />
        </mxCell>
        <mxCell id="GZCbPghufDg6-JbwwUEW-163" value="新增修复逻辑" style="rounded=1;whiteSpace=wrap;html=1;shadow=0;strokeWidth=1;spacing=6;spacingTop=-4;fillColor=none;strokeColor=none;" vertex="1" parent="WIyWlLk6GJQsqaUBKTNV-1">
          <mxGeometry x="1130" y="300" width="120" height="60" as="geometry" />
        </mxCell>
      </root>
    </mxGraphModel>
  </diagram>
</mxfile>
